<?xml version="1.0" encoding="UTF-8" standalone="no"?>
<svg
   xmlns:dc="http://purl.org/dc/elements/1.1/"
   xmlns:cc="http://creativecommons.org/ns#"
   xmlns:rdf="http://www.w3.org/1999/02/22-rdf-syntax-ns#"
   xmlns:svg="http://www.w3.org/2000/svg"
   xmlns="http://www.w3.org/2000/svg"
   xmlns:xlink="http://www.w3.org/1999/xlink"
   xmlns:sodipodi="http://sodipodi.sourceforge.net/DTD/sodipodi-0.dtd"
   xmlns:inkscape="http://www.inkscape.org/namespaces/inkscape"
   viewBox="0 0 199.99999 200"
   version="1.1"
   id="svg8"
   sodipodi:docname="background.svg"
   inkscape:version="0.92.4 (5da689c313, 2019-01-14)"
   width="200"
   height="200">
  <metadata
     id="metadata14">
    <rdf:RDF>
      <cc:Work
         rdf:about="">
        <dc:format>image/svg+xml</dc:format>
        <dc:type
           rdf:resource="http://purl.org/dc/dcmitype/StillImage" />
        <dc:title></dc:title>
      </cc:Work>
    </rdf:RDF>
  </metadata>
  <defs
     id="defs12">
    <linearGradient
       inkscape:collect="always"
       id="linearGradient6268">
      <stop
         style="stop-color:#ffffff;stop-opacity:1"
         offset="0"
         id="stop6264" />
      <stop
         style="stop-color:#e6e6e6;stop-opacity:1"
         offset="1"
         id="stop6266" />
    </linearGradient>
    <marker
       inkscape:stockid="DotS"
       orient="auto"
       refY="0"
       refX="0"
       id="DotS"
       style="overflow:visible"
       inkscape:isstock="true">
      <path
         id="path4632"
         d="m -2.5,-1 c 0,2.76 -2.24,5 -5,5 -2.76,0 -5,-2.24 -5,-5 0,-2.76 2.24,-5 5,-5 2.76,0 5,2.24 5,5 z"
         style="fill:#000000;fill-opacity:1;fill-rule:evenodd;stroke:#000000;stroke-width:1.00000003pt;stroke-opacity:1"
         transform="matrix(0.2,0,0,0.2,1.48,0.2)"
         inkscape:connector-curvature="0" />
    </marker>
    <marker
       inkscape:stockid="DotL"
       orient="auto"
       refY="0"
       refX="0"
       id="DotL"
       style="overflow:visible"
       inkscape:isstock="true">
      <path
         id="path4626"
         d="m -2.5,-1 c 0,2.76 -2.24,5 -5,5 -2.76,0 -5,-2.24 -5,-5 0,-2.76 2.24,-5 5,-5 2.76,0 5,2.24 5,5 z"
         style="fill:#000000;fill-opacity:1;fill-rule:evenodd;stroke:#000000;stroke-width:1.00000003pt;stroke-opacity:1"
         transform="matrix(0.8,0,0,0.8,5.92,0.8)"
         inkscape:connector-curvature="0" />
    </marker>
    <marker
       inkscape:stockid="SquareS"
       orient="auto"
       refY="0"
       refX="0"
       id="SquareS"
       style="overflow:visible"
       inkscape:isstock="true">
      <path
         id="path4641"
         d="M -5,-5 V 5 H 5 V -5 Z"
         style="fill:#000000;fill-opacity:1;fill-rule:evenodd;stroke:#000000;stroke-width:1.00000003pt;stroke-opacity:1"
         transform="scale(0.2)"
         inkscape:connector-curvature="0" />
    </marker>
    <marker
       inkscape:stockid="DiamondL"
       orient="auto"
       refY="0"
       refX="0"
       id="DiamondL"
       style="overflow:visible"
       inkscape:isstock="true">
      <path
         id="path4644"
         d="M 0,-7.0710768 -7.0710894,0 0,7.0710589 7.0710462,0 Z"
         style="fill:#000000;fill-opacity:1;fill-rule:evenodd;stroke:#000000;stroke-width:1.00000003pt;stroke-opacity:1"
         transform="scale(0.8)"
         inkscape:connector-curvature="0" />
    </marker>
    <radialGradient
       inkscape:collect="always"
       xlink:href="#linearGradient6268"
       id="radialGradient6272"
       cx="181.56958"
       cy="105.79669"
       fx="181.56958"
       fy="105.79669"
       r="115"
       gradientUnits="userSpaceOnUse"
       gradientTransform="matrix(0.12916561,1.2021018,-1.1076495,0.11901618,190.64728,-135.09318)" />
  </defs>
  <sodipodi:namedview
     pagecolor="#ffffff"
     bordercolor="#666666"
     borderopacity="1"
     objecttolerance="10"
     gridtolerance="10"
     guidetolerance="10"
     inkscape:pageopacity="0"
     inkscape:pageshadow="2"
     inkscape:window-width="1920"
     inkscape:window-height="1012"
     id="namedview10"
     showgrid="false"
     inkscape:zoom="2.0188195"
     inkscape:cx="142.22812"
     inkscape:cy="95.814709"
     inkscape:window-x="-8"
     inkscape:window-y="-8"
     inkscape:window-maximized="1"
     inkscape:current-layer="svg8"
     fit-margin-top="0"
     fit-margin-left="0"
     fit-margin-right="0"
     fit-margin-bottom="0" />
  <circle
     style="fill:url(#radialGradient6272);fill-opacity:1;stroke:#000000;stroke-width:1.86076403;stroke-miterlimit:4;stroke-dasharray:none;stroke-dashoffset:0;stroke-opacity:1"
     id="path4530"
     cx="100"
     cy="100"
     r="99.069618" />
  <g
     id="g4556"
     transform="matrix(0.79475107,0,0,0.7716261,94.194019,-123.40624)">
    <g
       id="g4550">
      <path
         d="m -0.9782978,195.72723 v -16.3 h -5.9 v -2.1 c 0.8,0 1.5,-0.1 2.2,-0.2 0.7,-0.1 1.4,-0.3 2,-0.7 0.6,-0.3 1.1,-0.8 1.5,-1.3 0.4,-0.6 0.7,-1.3 0.8,-2.1 h 2.1 v 22.7 z m 8.6,-17.9 c 0.3,-1 0.8,-1.8 1.4,-2.5 0.6,-0.7 1.3999998,-1.3 2.3999998,-1.7 0.9,-0.4 2,-0.6 3.2,-0.6 1,0 1.9,0.1 2.8,0.4 0.9,0.3 1.6,0.7 2.3,1.2 0.6,0.5 1.1,1.2 1.5,2 0.4,0.8 0.6,1.7 0.6,2.8 0,1 -0.2,1.9 -0.5,2.7 -0.3,0.8 -0.7,1.5 -1.2,2.1 -0.5,0.6 -1.1,1.2 -1.8,1.6 -0.7,0.5 -1.3,1 -2,1.4 -0.7,0.4 -1.4,0.8 -2.1,1.3 -0.7,0.5 -1.3,0.9 -1.9,1.3 -0.6,0.5 -1.1,1 -1.5,1.5 -0.4,0.5 -0.7,1.2 -0.8,1.9 h 11.6 v 2.4 H 6.8217022 c 0.1,-1.3 0.3,-2.5 0.7,-3.4 0.4,-0.9 0.8,-1.8 1.4,-2.5 0.6,-0.7 1.1999998,-1.3 1.9999998,-1.9 0.7,-0.5 1.5,-1 2.3,-1.5 1,-0.6 1.8,-1.1 2.5,-1.6 0.7,-0.5 1.3,-1 1.8,-1.5 0.5,-0.5 0.8,-1.1 1.1,-1.7 0.3,-0.6 0.4,-1.3 0.4,-2.1 0,-0.6 -0.1,-1.2 -0.4,-1.7 -0.2,-0.5 -0.5,-0.9 -0.9,-1.3 -0.4,-0.4 -0.9,-0.6 -1.4,-0.8 -0.5,-0.2 -1.1,-0.3 -1.7,-0.3 -0.8,0 -1.5,0.2 -2,0.5 -0.6,0.3 -1,0.8 -1.4,1.3 -0.4,0.5 -0.6,1.1 -0.8,1.8 -0.2,0.7 -0.2,1.3 -0.2,2 H 7.5217022 c -0.3,-1 -0.2,-2.1 0.1,-3.1 z m 52.3999998,33.4 v -16.3 h -5.9 v -2.2 c 0.8,0 1.5,-0.1 2.2,-0.2 0.7,-0.1 1.4,-0.3 2,-0.7 0.6,-0.3 1.1,-0.8 1.5,-1.3 0.4,-0.6 0.7,-1.3 0.8,-2.1 h 2.1 v 22.7 h -2.7 z m 32.4,21 c 0.3,-1 0.8,-1.8 1.4,-2.5 0.6,-0.7 1.4,-1.3 2.4,-1.7 0.9,-0.4 2,-0.6 3.2,-0.6 0.999998,0 1.899998,0.1 2.799998,0.4 0.9,0.3 1.6,0.7 2.3,1.2 0.6,0.5 1.1,1.2 1.5,2 0.4,0.8 0.6,1.7 0.6,2.8 0,1 -0.2,1.9 -0.5,2.7 -0.3,0.8 -0.7,1.5 -1.2,2.1 -0.5,0.6 -1.1,1.2 -1.8,1.6 -0.7,0.5 -1.3,1 -2,1.4 -0.7,0.4 -1.399998,0.8 -2.099998,1.3 -0.7,0.5 -1.3,0.9 -1.9,1.3 -0.6,0.5 -1.1,1 -1.5,1.5 -0.4,0.5 -0.7,1.2 -0.8,1.9 H 106.4217 v 2.4 H 91.521702 c 0.1,-1.3 0.3,-2.5 0.7,-3.4 0.4,-0.9 0.8,-1.8 1.4,-2.5 0.6,-0.7 1.2,-1.3 2,-1.9 0.7,-0.5 1.5,-1 2.3,-1.5 1,-0.6 1.8,-1.1 2.499998,-1.6 0.7,-0.5 1.3,-1 1.8,-1.5 0.5,-0.5 0.8,-1.1 1.1,-1.7 0.3,-0.6 0.4,-1.3 0.4,-2.1 0,-0.6 -0.1,-1.2 -0.4,-1.7 -0.2,-0.5 -0.5,-0.9 -0.9,-1.3 -0.4,-0.4 -0.9,-0.6 -1.4,-0.8 -0.5,-0.2 -1.099998,-0.3 -1.699998,-0.3 -0.8,0 -1.5,0.2 -2,0.5 -0.6,0.3 -1,0.8 -1.4,1.3 -0.4,0.5 -0.6,1.1 -0.8,1.8 -0.2,0.7 -0.2,1.3 -0.2,2 h -2.7 c -0.2,-1.1 -0.1,-2.1 0.2,-3.1 z m 18.699998,55.9 h 0.9 c 0.6,0 1.1,-0.1 1.6,-0.2 0.5,-0.1 1,-0.4 1.4,-0.7 0.4,-0.3 0.7,-0.7 0.9,-1.2 0.2,-0.5 0.4,-1 0.4,-1.6 0,-1.2 -0.4,-2.1 -1.2,-2.7 -0.8,-0.6 -1.7,-0.9 -2.9,-0.9 -0.7,0 -1.4,0.1 -1.9,0.4 -0.5,0.3 -1,0.6 -1.3,1.1 -0.4,0.4 -0.6,1 -0.8,1.6 -0.2,0.6 -0.3,1.2 -0.3,1.9 h -2.7 c 0,-1.1 0.2,-2.1 0.5,-3 0.3,-0.9 0.8,-1.7 1.3,-2.3 0.6,-0.6 1.3,-1.1 2.2,-1.5 0.9,-0.4 1.9,-0.5 3,-0.5 1,0 1.9,0.1 2.7,0.4 0.8,0.3 1.6,0.6 2.2,1.1 0.6,0.5 1.1,1.1 1.5,1.9 0.4,0.8 0.5,1.7 0.5,2.7 0,1 -0.3,1.9 -0.9,2.7 -0.6,0.8 -1.3,1.4 -2.2,1.8 v 0.1 c 1.4,0.3 2.4,1 3.1,2 0.7,1 1,2.2 1,3.6 0,1.1 -0.2,2.1 -0.6,3 -0.4,0.9 -1,1.6 -1.7,2.2 -0.7,0.6 -1.5,1 -2.5,1.3 -1,0.3 -2,0.4 -3,0.4 -1.2,0 -2.2,-0.2 -3.1,-0.5 -0.9,-0.3 -1.7,-0.8 -2.4,-1.4 -0.7,-0.6 -1.2,-1.4 -1.5,-2.3 -0.4,-0.9 -0.5,-2 -0.5,-3.1 h 2.7 c 0,1.5 0.5,2.7 1.3,3.6 0.8,0.9 2,1.4 3.6,1.4 0.7,0 1.3,-0.1 1.9,-0.3 0.6,-0.2 1.1,-0.5 1.6,-0.9 0.5,-0.4 0.8,-0.8 1.1,-1.4 0.3,-0.6 0.4,-1.2 0.4,-1.8 0,-0.7 -0.1,-1.3 -0.4,-1.9 -0.3,-0.6 -0.6,-1 -1,-1.4 -0.4,-0.4 -0.9,-0.7 -1.5,-0.8 -0.6,-0.1 -1.2,-0.3 -1.9,-0.3 -0.6,0 -1.1,0 -1.6,0.1 v -2.7 c -0.1,0.1 0,0.1 0.1,0.1 z m -3.4,58.7 v 2.4 h -3.1 v 5.3 h -2.6 v -5.3 h -9.999998 v -2.6 l 10.299998,-14.8 h 2.2 v 15 z m -5.6,-11.1 -7.599998,11.1 h 7.599998 z m -44.899998,36.7 -1.2,6.5 0.1,0.1 c 0.5,-0.6 1.1,-1 1.9,-1.2 0.8,-0.3 1.6,-0.4 2.3,-0.4 1,0 2,0.2 2.8,0.5 0.9,0.3 1.7,0.8 2.3,1.5 0.7,0.7 1.2,1.5 1.6,2.4 0.4,0.9 0.6,2.1 0.6,3.4 0,1 -0.2,1.9 -0.5,2.8 -0.3,0.9 -0.8,1.7 -1.5,2.4 -0.7,0.7 -1.5,1.3 -2.5,1.7 -1,0.4 -2.1,0.6 -3.5,0.6 -1,0 -1.9,-0.1 -2.8,-0.4 -0.9,-0.3 -1.6,-0.7 -2.3,-1.2 -0.7,-0.5 -1.2,-1.2 -1.6,-2 -0.4,-0.8 -0.6,-1.7 -0.6,-2.8 h 2.7 c 0,0.6 0.2,1.1 0.4,1.6 0.2,0.5 0.6,0.9 1,1.3 0.4,0.4 0.9,0.7 1.5,0.9 0.6,0.2 1.2,0.3 1.9,0.3 0.6,0 1.3,-0.1 1.8,-0.3 0.6,-0.2 1.1,-0.6 1.5,-1 0.4,-0.4 0.8,-1 1,-1.7 0.3,-0.7 0.4,-1.5 0.4,-2.4 0,-0.7 -0.1,-1.4 -0.4,-2.1 -0.3,-0.7 -0.6,-1.2 -1,-1.6 -0.4,-0.4 -1,-0.8 -1.6,-1.1 -0.6,-0.3 -1.3,-0.4 -2.1,-0.4 -0.9,0 -1.7,0.2 -2.4,0.6 -0.7,0.4 -1.3,0.9 -1.8,1.6 l -2.3,-0.1 2.1,-11.8 h 11.2 v 2.4 h -9 z m -47.2999998,14.7 c -0.7,-0.6 -1.5,-0.9 -2.6,-0.9 -1.2,0 -2.1,0.3 -2.8,0.8 -0.7,0.5 -1.3,1.3 -1.6,2.1 -0.3,0.8 -0.7,1.8 -0.8,2.8 -0.1,1 -0.2,1.9 -0.3,2.8 l 0.1,0.1 c 0.6,-1 1.4,-1.8 2.4,-2.3 0.9,-0.5 2,-0.7 3.3,-0.7 1.1,0 2.1,0.2 2.8999998,0.6 0.9,0.4 1.6,0.9 2.2,1.6 0.6,0.7 1,1.4 1.4,2.3 0.3,0.9 0.5,1.9 0.5,2.9 0,0.8 -0.1,1.7 -0.4,2.6 -0.3,0.9 -0.7,1.7 -1.3,2.4 -0.6,0.7 -1.4,1.3 -2.3,1.8 -0.9999998,0.5 -2.1999998,0.7 -3.5999998,0.7 -1.7,0 -3,-0.3 -4.1,-1 -1.1,-0.7 -1.8,-1.6 -2.4,-2.6 -0.6,-1.1 -0.9,-2.2 -1.1,-3.5 -0.2,-1.3 -0.3,-2.5 -0.3,-3.7 0,-1.6 0.1,-3.1 0.4,-4.5 0.3,-1.5 0.7,-2.8 1.4,-3.9 0.6,-1.1 1.5,-2 2.6,-2.7 1.1,-0.7 2.4,-1 4,-1 1.9,0 3.3999998,0.5 4.4999998,1.5 1.1,1 1.7,2.4 1.9,4.3 h -2.7 c -0.2,-1.1 -0.6,-1.9 -1.2999998,-2.5 z m -4.9,7.5 c -0.6,0.3 -1.1,0.6 -1.5,1.1 -0.4,0.5 -0.7,1 -0.9,1.6 -0.2,0.6 -0.3,1.3 -0.3,2 0,0.7 0.1,1.4 0.3,2 0.2,0.6 0.5,1.2 0.9,1.6 0.4,0.4 0.9,0.8 1.5,1.1 0.6,0.3 1.3,0.4 2,0.4 0.7,0 1.4,-0.1 2,-0.4 0.6,-0.3 0.9999998,-0.6 1.3999998,-1.1 0.4,-0.5 0.7,-1 0.9,-1.6 0.2,-0.6 0.3,-1.2 0.3,-1.9 0,-0.7 -0.1,-1.4 -0.3,-2 -0.2,-0.6 -0.5,-1.2 -0.8,-1.6 -0.4,-0.5 -0.8999998,-0.8 -1.3999998,-1.1 -0.5,-0.3 -1.2,-0.4 -2,-0.4 -0.9,-0.1 -1.5,0.1 -2.1,0.3 z m -46.6000002,-18.2 c -1,1.6 -1.9,3.2 -2.7,5 -0.8,1.8 -1.4,3.6 -1.9,5.5 -0.5,1.9 -0.8,3.7 -0.9,5.5 h -3 c 0.1,-1.9 0.4,-3.8 0.9,-5.6 0.5,-1.8 1.1,-3.6 1.9,-5.2 0.8,-1.6 1.7,-3.3 2.7,-4.8 1,-1.5 2.1,-2.9 3.3,-4.1 h -11.7 v -2.7 h 14.7 v 2.3 c -1.2,1.2 -2.3,2.5 -3.3,4.1 z m -49.7,-41.3 c 0.4,-0.7 0.9,-1.3 1.5,-1.8 0.6,-0.5 1.3,-0.9 2.1,-1.1 0.8,-0.3 1.6,-0.4 2.5,-0.4 1.2,0 2.3,0.2 3.2,0.5 0.9,0.3 1.6,0.8 2.1,1.3 0.5,0.5 0.9,1.2 1.2,1.9 0.3,0.7 0.4,1.4 0.4,2.1 0,1 -0.3,2 -0.8,2.8 -0.5,0.8 -1.3,1.5 -2.3,1.9 1.4,0.4 2.4,1.1 3,2.1 0.6,1 1,2.2 1,3.6 0,1.1 -0.2,2.1 -0.6,2.9 -0.4,0.9 -0.9,1.6 -1.6,2.2 -0.7,0.6 -1.5,1 -2.4,1.3 -0.9,0.3 -1.9,0.4 -2.9,0.4 -1.1,0 -2.1,-0.1 -3,-0.4 -0.9,-0.3 -1.8,-0.7 -2.4,-1.3 -0.6,-0.6 -1.2,-1.3 -1.6,-2.2 -0.4,-0.9 -0.6,-1.9 -0.6,-3 0,-1.3 0.3,-2.5 1,-3.5 0.7,-1 1.7,-1.7 2.9,-2.2 -1,-0.4 -1.7,-1 -2.3,-1.9 -0.6,-0.9 -0.9,-1.8 -0.9,-2.8 -0.1,-0.9 0.1,-1.7 0.5,-2.4 z m 2.9,16.2 c 0.9,0.8 2.1,1.2 3.5,1.2 0.7,0 1.3,-0.1 1.9,-0.3 0.6,-0.2 1.1,-0.5 1.5,-0.9 0.4,-0.4 0.7,-0.9 1,-1.4 0.3,-0.5 0.3,-1.1 0.3,-1.8 0,-0.6 -0.1,-1.2 -0.4,-1.7 -0.3,-0.5 -0.6,-1 -1,-1.4 -0.4,-0.4 -0.9,-0.7 -1.5,-0.9 -0.6,-0.2 -1.2,-0.3 -1.8,-0.3 -0.7,0 -1.3,0.1 -1.9,0.3 -0.6,0.2 -1.1,0.5 -1.5,0.9 -0.4,0.4 -0.8,0.8 -1,1.4 -0.2,0.5 -0.4,1.1 -0.4,1.8 -0.1,1.2 0.3,2.3 1.3,3.1 z m -0.3,-12 c 0.2,0.5 0.5,0.8 0.9,1.1 0.4,0.3 0.8,0.5 1.3,0.7 0.5,0.1 1,0.2 1.6,0.2 1.1,0 2,-0.3 2.7,-1 0.7,-0.6 1.1,-1.5 1.1,-2.7 0,-1.2 -0.4,-2 -1.1,-2.6 -0.7,-0.6 -1.6,-0.9 -2.7,-0.9 -0.5,0 -1,0.1 -1.5,0.2 -0.5,0.1 -0.9,0.4 -1.3,0.7 -0.4,0.3 -0.6,0.7 -0.8,1.1 -0.2,0.4 -0.3,0.9 -0.3,1.5 -0.2,0.7 -0.1,1.2 0.1,1.7 z m -13.300002,-41.2 c 0.8,0.6 1.7,0.9 2.800002,0.9 1.7,0 2.9,-0.7 3.7,-2.2 0.8,-1.5 1.3,-3.6 1.4,-6.6 l -0.1,-0.1 c -0.5,1 -1.2,1.7 -2.2,2.3 -0.9,0.6 -2,0.8 -3.1,0.8 -1.200002,0 -2.200002,-0.2 -3.100002,-0.6 -0.9,-0.4 -1.6,-0.9 -2.3,-1.6 -0.6,-0.7 -1.1,-1.5 -1.4,-2.4 -0.3,-0.9 -0.5,-2 -0.5,-3.1 0,-1.1 0.2,-2.1 0.5,-3 0.4,-0.9 0.9,-1.7 1.5,-2.3 0.7,-0.7 1.5,-1.2 2.4,-1.5 0.9,-0.4 1.9,-0.5 3.000002,-0.5 1.1,0 2.1,0.2 3,0.5 0.9,0.3 1.8,0.9 2.5,1.7 0.7,0.8 1.3,1.9 1.7,3.3 0.4,1.4 0.6,3.2 0.6,5.3 0,3.9 -0.6,6.9 -1.9,9 -1.2,2.1 -3.2,3.2 -6,3.2 -1.900002,0 -3.500002,-0.5 -4.700002,-1.4 -1.2,-0.9 -2,-2.4 -2.1,-4.4 h 2.7 c 0.4,1.2 0.9,2.1 1.6,2.7 z m 7.200002,-14.2 c -0.2,-0.6 -0.5,-1.2 -0.9,-1.6 -0.4,-0.4 -0.9,-0.9 -1.5,-1.1 -0.6,-0.3 -1.2,-0.4 -2,-0.4 -0.8,0 -1.500002,0.1 -2.100002,0.4 -0.6,0.3 -1,0.7 -1.4,1.2 -0.4,0.5 -0.6,1.1 -0.8,1.7 -0.2,0.6 -0.2,1.3 -0.2,2 0,0.6 0.1,1.2 0.3,1.8 0.2,0.6 0.5,1.1 0.9,1.5 0.4,0.4 0.9,0.8 1.4,1.1 0.5,0.3 1.100002,0.4 1.800002,0.4 0.7,0 1.3,-0.1 1.9,-0.4 0.6,-0.3 1.1,-0.6 1.5,-1.1 0.4,-0.5 0.7,-1 0.9,-1.6 0.2,-0.6 0.3,-1.2 0.3,-1.9 0.2,-0.7 0.1,-1.4 -0.1,-2 z m 1.9,-34.9 v -16.2 h -5.8 v -2.2 c 0.8,0 1.5,-0.1 2.2,-0.2 0.7,-0.1 1.4,-0.3 2,-0.7 0.6,-0.3 1.1,-0.8 1.5,-1.3 0.4,-0.6 0.7,-1.3 0.8,-2.1 h 2.1 v 22.7 z m 8.3,-13.7 c 0,-0.9 0.1,-1.8 0.3,-2.6 0.2,-0.9 0.4,-1.7 0.7,-2.4 0.3,-0.8 0.8,-1.4 1.3,-2 0.6,-0.6 1.3,-1 2.1,-1.4 0.8,-0.4 1.9,-0.5 3,-0.5 1.2,0 2.2,0.2 3,0.5 0.8,0.3 1.5,0.8 2.1,1.4 0.6,0.6 1,1.2 1.3,2 0.3,0.8 0.6,1.6 0.7,2.4 0.2,0.9 0.3,1.7 0.3,2.6 0,0.9 0.1,1.8 0.1,2.6 0,0.8 0,1.7 -0.1,2.6 -0.1,0.9 -0.1,1.8 -0.3,2.6 -0.2,0.9 -0.4,1.7 -0.7,2.4 -0.3,0.7 -0.8,1.4 -1.3,2 -0.6,0.6 -1.2,1 -2.1,1.4 -0.9,0.4 -1.8,0.5 -3,0.5 -1.2,0 -2.2,-0.2 -3,-0.5 -0.8,-0.3 -1.5,-0.8 -2.1,-1.4 -0.6,-0.6 -1,-1.2 -1.3,-2 -0.3,-0.8 -0.6,-1.6 -0.7,-2.4 -0.2,-0.9 -0.3,-1.7 -0.3,-2.6 0,-0.9 -0.1,-1.8 -0.1,-2.6 0.1,-0.8 0.1,-1.7 0.1,-2.6 z m 2.9,5.4 c 0.1,1.1 0.2,2 0.5,3 0.3,0.9 0.8,1.7 1.4,2.4 0.6,0.7 1.5,1 2.7,1 1.2,0 2,-0.3 2.7,-1 0.7,-0.7 1.1,-1.4 1.4,-2.4 0.3,-0.9 0.5,-1.9 0.5,-3 0.1,-1.1 0.1,-2 0.1,-2.9 v -1.8 c 0,-0.7 -0.1,-1.3 -0.2,-2 -0.1,-0.7 -0.2,-1.3 -0.4,-2 -0.2,-0.6 -0.4,-1.2 -0.8,-1.7 -0.4,-0.5 -0.8,-0.9 -1.3,-1.2 -0.5,-0.3 -1.2,-0.4 -2,-0.4 -0.8,0 -1.4,0.1 -2,0.4 -0.5,0.3 -1,0.7 -1.3,1.2 -0.4,0.5 -0.6,1 -0.8,1.7 -0.2,0.6 -0.3,1.3 -0.4,2 -0.1,0.7 -0.1,1.3 -0.2,2 v 1.8 c 0.1,0.9 0.1,1.9 0.1,2.9 z"
         id="path2"
         inkscape:connector-curvature="0" />
      <g
         id="g6"
         transform="translate(-106.4783,173.02723)">
        <path
           d="M 53.5,38.2 V 21.9 h -5.9 v -2.2 c 0.8,0 1.5,-0.1 2.2,-0.2 0.7,-0.1 1.4,-0.3 2,-0.7 0.6,-0.3 1.1,-0.8 1.5,-1.3 0.4,-0.6 0.7,-1.3 0.8,-2.1 h 2.1 v 22.7 h -2.7 z m 15.6,0 V 21.9 h -5.9 v -2.2 c 0.8,0 1.5,-0.1 2.2,-0.2 0.7,-0.1 1.4,-0.3 2,-0.7 0.6,-0.3 1.1,-0.8 1.5,-1.3 0.4,-0.6 0.7,-1.3 0.8,-2.1 h 2.1 v 22.7 h -2.7 z"
           id="path4"
           inkscape:connector-curvature="0" />
      </g>
    </g>
  </g>
  <ellipse
     style="fill:none;stroke:#000000;stroke-width:1.79347456;stroke-miterlimit:4;stroke-dasharray:0, 19.7282214;stroke-dashoffset:22.32959557;stroke-opacity:1;marker-mid:url(#DotS)"
     id="path4530-9"
     cx="99.510201"
     cy="99.830673"
     rx="95.485184"
     ry="95.485207" />
</svg>
